<svg xmlns="http://www.w3.org/2000/svg" x="0px" y="0px" viewBox="0 0 500 550">
<g>
	<path d="M459.1,237.05c0-17.2-3.801-32.5-11.5-45.9h1.9c26.799,0,47.799-21,47.799-47.8c0-24.9-17.199-44-42.1-47.8
		c-7.699-23-28.699-38.2-53.5-38.2c-3.799,0-9.6,0-13.4,1.9c-9.6-13.4-26.799-21-44-21c-32.5,0-57.398,24.9-57.398,57.4
		c0,0,0,0,0,1.9c-11.5,1.9-21,7.6-28.701,17.2c-19.1-11.5-42.1-19.1-66.9-19.1c-74.6,0-133.9,59.3-133.9,133.9c0,1.9,0,5.7,0,7.6
		c-34.4,15.3-57.4,47.8-57.4,88c0,34.4,17.2,65,44,80.301c-3.8,7.699-5.7,15.3-5.7,24.899c0,26.8,21,47.8,47.8,47.8h153
		c26.801,0,47.801-21,47.801-47.8c0-3.8,0-5.7-1.9-9.6h135.799c53.5,0,95.602-42.101,95.602-95.601
		C516.5,284.85,493.5,252.35,459.1,237.05z M296.5,114.65h15.299c-3.799-5.7-5.699-11.5-5.699-19.1c0-21,17.199-38.2,38.199-38.2
		c17.201,0,30.602,11.5,36.301,24.9c5.699-3.8,13.4-5.7,21-5.7c21,0,38.199,17.2,38.199,38.2h9.602
		c15.299,0,28.699,13.4,28.699,28.7c0,15.3-13.4,28.7-28.699,28.7H434.1c-19.1-23-47.801-38.2-80.301-38.2
		c-21,0-38.199,5.7-55.5,15.3c-7.699-9.6-15.299-17.2-24.898-24.9C279.299,118.55,286.9,114.65,296.5,114.65z M239.1,458.951h-153
		c-15.3,0-28.7-13.4-28.7-28.7s13.4-28.7,28.7-28.7h15.3c-3.8-5.7-5.7-11.5-5.7-19.1c0-21,17.2-38.2,38.2-38.2
		c17.2,0,30.6,11.5,36.3,24.899c5.7-3.8,13.4-5.699,21-5.699c21,0,38.2,17.199,38.2,38.199h9.6c15.3,0,28.7,13.4,28.7,28.7
		S254.4,458.951,239.1,458.951z M420.799,401.55H277.4c-7.602-9.6-19.101-17.2-32.5-19.1c-7.6-23-28.7-38.2-53.5-38.2
		c-3.8,0-9.6,0-13.4,1.899c-9.6-13.399-26.8-21-44-21c-32.5,0-57.4,24.9-57.4,57.4c0,0,0,0,0,1.9c-7.7,1.899-13.4,3.8-19.1,7.6
		c-23-13.4-38.2-38.2-38.2-66.9c0-36.3,24.9-66.899,59.3-74.6c-1.9-7.7-1.9-13.4-1.9-21c0-63.1,51.6-114.8,114.8-114.8
		c44,0,84.1,24.9,103.299,63.1c15.301-15.3,36.301-24.9,59.301-24.9c47.801,0,86.1,38.2,86.1,86.1c0,3.8,0,7.6,0,11.5
		c32.5,7.6,57.4,38.2,57.4,74.6C497.299,367.15,462.9,401.55,420.799,401.55z"/>
</g>
</svg>